<?xml version="1.0" encoding="utf-8"?>
<!-- Generator: Adobe Illustrator 16.0.0, SVG Export Plug-In . SVG Version: 6.00 Build 0)  -->
<!DOCTYPE svg PUBLIC "-//W3C//DTD SVG 1.1//EN" "http://www.w3.org/Graphics/SVG/1.1/DTD/svg11.dtd">
<svg version="1.1" id="图层_1" xmlns="http://www.w3.org/2000/svg" xmlns:xlink="http://www.w3.org/1999/xlink" x="0px" y="0px"
	 width="148px" height="161.372px" viewBox="98.729 3.372 148 161.372" enable-background="new 98.729 3.372 148 161.372"
	 xml:space="preserve">
<g>
	<g>
		<defs>
			<rect id="SVGID_1_" x="-192.271" y="-150.296" width="725.39" height="447.58"/>
		</defs>
		<clipPath id="SVGID_2_">
			<use xlink:href="#SVGID_1_"  overflow="visible"/>
		</clipPath>
		<path clip-path="url(#SVGID_2_)" fill="#FFFFFF" d="M174.289,28.924v15.129c6.807,0,12.342,5.532,12.342,12.339
			c0,6.808-5.535,12.344-12.342,12.344c-6.791,0-12.316-5.513-12.338-12.298V9.34H146.82v44.444v2.61v0.474h0.012
			c0.256,14.929,12.469,26.998,27.457,26.998c15.146,0,27.469-12.324,27.469-27.471S189.438,28.924,174.289,28.924"/>
	</g>
	<g>
		<defs>
			<rect id="SVGID_3_" x="-192.271" y="-150.296" width="725.39" height="447.58"/>
		</defs>
		<clipPath id="SVGID_4_">
			<use xlink:href="#SVGID_3_"  overflow="visible"/>
		</clipPath>
		<path clip-path="url(#SVGID_4_)" fill="#FFFFFF" d="M174.289,48.417c4.473,0,8.1,3.625,8.1,8.097c0,4.473-3.627,8.1-8.1,8.1"/>
	</g>
	<g>
		<defs>
			<rect id="SVGID_5_" x="-192.271" y="-150.296" width="725.39" height="447.58"/>
		</defs>
		<clipPath id="SVGID_6_">
			<use xlink:href="#SVGID_5_"  overflow="visible"/>
		</clipPath>
		<path clip-path="url(#SVGID_6_)" fill="#FFFFFF" d="M174.289,9.337V21.75c19.131,0,34.645,15.508,34.645,34.644
			c0,19.134-15.508,34.642-34.645,34.642c-19.131,0-34.644-15.508-34.644-34.642h-12.417c0,25.987,21.068,47.054,47.06,47.054
			s47.061-21.064,47.061-47.054C221.354,30.405,200.281,9.337,174.289,9.337"/>
	</g>
	<g>
		<defs>
			<rect id="SVGID_7_" x="-192.271" y="-150.296" width="725.39" height="447.58"/>
		</defs>
		<clipPath id="SVGID_8_">
			<use xlink:href="#SVGID_7_"  overflow="visible"/>
		</clipPath>
		<path clip-path="url(#SVGID_8_)" fill="#FFFFFF" d="M126.272,147.956c0.588,0.403,1.067,0.915,1.434,1.524
			c0.367,0.618,0.553,1.33,0.553,2.162c0,0.991-0.209,1.832-0.629,2.519c-0.416,0.685-1.018,1.229-1.799,1.622
			c-0.827,0.418-1.784,0.723-2.864,0.896c-1.082,0.179-2.352,0.262-3.813,0.262h-10.168v-1.074c0.283-0.026,0.643-0.066,1.075-0.122
			c0.434-0.058,0.736-0.123,0.91-0.193c0.344-0.14,0.575-0.32,0.697-0.546c0.125-0.224,0.188-0.516,0.188-0.874V140.33
			c0-0.324-0.052-0.604-0.152-0.822c-0.101-0.224-0.346-0.417-0.733-0.579c-0.283-0.123-0.615-0.219-0.991-0.3
			c-0.378-0.073-0.71-0.137-0.994-0.186v-1.074h10.635c2.676,0,4.61,0.369,5.796,1.101c1.188,0.739,1.781,1.824,1.781,3.255
			c0,0.664-0.134,1.245-0.398,1.749c-0.269,0.505-0.65,0.936-1.147,1.303c-0.452,0.339-0.963,0.723-1.589,0.973
			c-0.627,0.25-1.332,0.505-2.051,0.672v0.26c0.719,0.079,1.473,0.089,2.246,0.334C125.032,147.258,125.703,147.567,126.272,147.956
			 M121.83,142.064c0-1.085-0.305-1.93-0.918-2.542c-0.612-0.606-1.53-0.91-2.753-0.91c-0.174,0-0.402,0.007-0.683,0.024
			c-0.281,0.014-0.522,0.026-0.724,0.036v7.256h0.718c1.49,0,2.59-0.344,3.297-1.041C121.475,144.191,121.83,143.25,121.83,142.064
			 M122.795,151.469c0-1.366-0.406-2.413-1.213-3.139c-0.809-0.726-1.975-1.089-3.491-1.089c-0.175,0-0.408,0.008-0.697,0.023
			c-0.292,0.007-0.504,0.025-0.643,0.03v7.179c0.082,0.34,0.34,0.626,0.772,0.861c0.434,0.234,0.957,0.352,1.574,0.352
			c1.094,0,1.984-0.366,2.667-1.107C122.452,153.84,122.795,152.805,122.795,151.469"/>
	</g>
	<g>
		<defs>
			<rect id="SVGID_9_" x="-192.271" y="-150.296" width="725.39" height="447.58"/>
		</defs>
		<clipPath id="SVGID_10_">
			<use xlink:href="#SVGID_9_"  overflow="visible"/>
		</clipPath>
		<path clip-path="url(#SVGID_10_)" fill="#FFFFFF" d="M157.281,156.934h-10.666v-1.072c0.5-0.044,1.076-0.144,1.752-0.275
			c1.035-0.188,1-0.687,0.98-0.772c-0.014-0.095-0.051-0.22-0.115-0.377l-1.67-4.055h-6.759c-0.155,0.374-0.326,0.817-0.514,1.321
			c-0.188,0.512-0.353,0.963-0.488,1.353c-0.174,0.514-0.278,0.887-0.307,1.119c-0.034,0.229-0.049,0.389-0.049,0.479
			c0,0.301,0.223,0.547,0.667,0.757c0.446,0.207,1.189,0.354,2.227,0.444v1.074h-8.032v-1.074c0.307-0.016,0.65-0.069,1.029-0.142
			c0.381-0.082,0.684-0.188,0.903-0.325c0.38-0.226,0.698-0.497,0.959-0.82c0.265-0.318,0.481-0.702,0.657-1.143
			c1.066-2.584,2.135-5.174,3.206-7.767c1.072-2.596,2.257-5.456,3.555-8.581h2.76c1.799,4.434,3.213,7.937,4.234,10.511
			c1.021,2.577,1.891,4.704,2.609,6.401c0.119,0.28,0.271,0.527,0.453,0.755c0.188,0.223,0.449,0.437,0.787,0.644
			c0.26,0.144,0.559,0.256,0.9,0.329c0.336,0.068,0.646,0.115,0.92,0.138V156.934z M146.998,149.019l-2.835-7.081l-2.792,7.081
			H146.998z"/>
	</g>
	<g>
		<defs>
			<rect id="SVGID_11_" x="-192.271" y="-150.296" width="725.39" height="447.58"/>
		</defs>
		<clipPath id="SVGID_12_">
			<use xlink:href="#SVGID_11_"  overflow="visible"/>
		</clipPath>
		<path clip-path="url(#SVGID_12_)" fill="#FFFFFF" d="M239.604,156.934h-10.666v-1.072c0.494-0.044,1.076-0.144,1.748-0.275
			c1.037-0.188,1-0.687,0.98-0.772c-0.014-0.095-0.055-0.22-0.113-0.377l-1.67-4.055h-6.764c-0.154,0.374-0.322,0.817-0.51,1.321
			c-0.186,0.512-0.35,0.963-0.488,1.353c-0.17,0.514-0.277,0.887-0.303,1.119c-0.039,0.229-0.053,0.389-0.053,0.479
			c0,0.301,0.221,0.547,0.664,0.757c0.445,0.207,1.195,0.354,2.227,0.444v1.074h-8.029v-1.074c0.303-0.016,0.648-0.069,1.027-0.142
			c0.381-0.082,0.688-0.188,0.904-0.325c0.379-0.226,0.697-0.497,0.961-0.82c0.266-0.318,0.484-0.702,0.654-1.143
			c1.068-2.584,2.137-5.174,3.211-7.767c1.068-2.596,2.258-5.456,3.551-8.581h2.764c1.799,4.434,3.215,7.937,4.234,10.511
			c1.021,2.577,1.889,4.704,2.611,6.401c0.117,0.28,0.273,0.527,0.453,0.755c0.182,0.223,0.445,0.437,0.785,0.644
			c0.262,0.144,0.555,0.256,0.895,0.329c0.34,0.068,0.648,0.115,0.93,0.138v1.078H239.604z M229.311,149.019l-2.836-7.081
			l-2.791,7.081H229.311z"/>
	</g>
	<g>
		<defs>
			<rect id="SVGID_13_" x="-192.271" y="-150.296" width="725.39" height="447.58"/>
		</defs>
		<clipPath id="SVGID_14_">
			<use xlink:href="#SVGID_13_"  overflow="visible"/>
		</clipPath>
		<path clip-path="url(#SVGID_14_)" fill="#FFFFFF" d="M185.605,138.437c-0.262,0.025-0.623,0.08-1.105,0.155
			c-0.475,0.07-0.91,0.248-1.297,0.53c-0.342,0.251-0.584,0.675-0.725,1.283c-0.145,0.601-0.215,1.487-0.215,2.658v13.989h-2.455
			l-12.195-15.139v9.189c0,1.142,0.078,2.009,0.227,2.599c0.152,0.597,0.289,1.143,0.627,1.419c0.25,0.202,0.717,0.331,1.26,0.49
			c0.539,0.153,1.02,0.195,1.336,0.255v1.074h-8.414v-1.074c0.355-0.026,0.768-0.089,1.232-0.197
			c0.465-0.105,0.855-0.271,1.166-0.494c0.357-0.267,0.605-0.67,0.736-1.207c0.135-0.537,0.201-1.439,0.201-2.713v-9.266
			c0-0.465-0.07-0.894-0.215-1.304c-0.141-0.413-0.365-0.767-0.666-1.06c-0.326-0.313-0.693-0.557-1.109-0.736
			c-0.42-0.181-0.896-0.325-1.43-0.428v-1.1h7.369l10.707,13.241v-7.407c0-1.177-0.076-2.051-0.236-2.627
			c-0.154-0.574-0.301-1.009-0.643-1.286c-0.266-0.214-0.762-0.382-1.287-0.532c-0.523-0.153-0.949-0.26-1.27-0.314v-1.074h8.404
			v1.074H185.605z"/>
	</g>
	<g>
		<defs>
			<rect id="SVGID_15_" x="-192.271" y="-150.296" width="725.39" height="447.58"/>
		</defs>
		<clipPath id="SVGID_16_">
			<use xlink:href="#SVGID_15_"  overflow="visible"/>
		</clipPath>
		<path clip-path="url(#SVGID_16_)" fill="#FFFFFF" d="M202.754,157.477c-1.438,0-2.781-0.234-4.031-0.695
			c-1.25-0.47-2.34-1.142-3.27-2.027c-0.91-0.865-1.627-1.935-2.154-3.21c-0.521-1.28-0.787-2.681-0.787-4.211
			c0-1.521,0.271-2.925,0.795-4.223c0.529-1.292,1.275-2.413,2.229-3.359c0.938-0.932,2.064-1.655,3.377-2.161
			c1.314-0.512,2.725-0.77,4.227-0.77c1.086,0,2.072,0.134,2.967,0.4c0.891,0.271,1.645,0.563,2.262,0.894l0.855-0.752h1.197
			l0.125,7.148h-1.209c-0.693-2.193-1.52-3.797-2.482-4.818c-0.967-1.021-2.143-1.531-3.527-1.531c-1.732,0-3.041,0.754-3.943,2.285
			c-0.9,1.521-1.891,2.504-1.816,6.562c0.035,2.382,0.617,2.744,0.928,3.839c0.309,1.102,0.709,1.989,1.207,2.665
			c0.531,0.695,1.162,1.213,1.883,1.541c0.732,0.324,1.537,0.489,2.418,0.489c1.283,0,2.43-0.351,3.438-1.049
			c1.01-0.701,1.92-1.759,2.748-3.175l1.189,0.72c-0.395,0.809-0.848,1.531-1.348,2.169c-0.514,0.645-1.094,1.198-1.76,1.654
			c-0.729,0.503-1.529,0.898-2.406,1.186C204.979,157.335,203.943,157.477,202.754,157.477"/>
	</g>
</g>
</svg>
